<?xml version="1.0" encoding="UTF-8" standalone="no"?>
<svg
   xmlns:dc="http://purl.org/dc/elements/1.1/"
   xmlns:cc="http://creativecommons.org/ns#"
   xmlns:rdf="http://www.w3.org/1999/02/22-rdf-syntax-ns#"
   xmlns:svg="http://www.w3.org/2000/svg"
   xmlns="http://www.w3.org/2000/svg"
   xmlns:xlink="http://www.w3.org/1999/xlink"
   xmlns:sodipodi="http://sodipodi.sourceforge.net/DTD/sodipodi-0.dtd"
   xmlns:inkscape="http://www.inkscape.org/namespaces/inkscape"
   width="128px"
   height="128px"
   viewBox="0 0 128 128"
   version="1.1"
   id="svg2"
   inkscape:version="0.48.4 r9939"
   sodipodi:docname="icon.svg">
  <metadata
     id="metadata14">
    <rdf:RDF>
      <cc:Work
         rdf:about="">
        <dc:format>image/svg+xml</dc:format>
        <dc:type
           rdf:resource="http://purl.org/dc/dcmitype/StillImage" />
      </cc:Work>
    </rdf:RDF>
  </metadata>
  <sodipodi:namedview
     pagecolor="#ffffff"
     bordercolor="#666666"
     borderopacity="1"
     objecttolerance="10"
     gridtolerance="10"
     guidetolerance="10"
     inkscape:pageopacity="0"
     inkscape:pageshadow="2"
     inkscape:window-width="1317"
     inkscape:window-height="744"
     id="namedview12"
     showgrid="false"
     inkscape:zoom="0.82449756"
     inkscape:cx="-11.899497"
     inkscape:cy="64"
     inkscape:window-x="49"
     inkscape:window-y="24"
     inkscape:window-maximized="1"
     inkscape:current-layer="svg2"
     showguides="true"
     inkscape:guide-bbox="true" />
  <!-- Generator: Sketch 3.0.2 (7799) - http://www.bohemiancoding.com/sketch -->
  <title
     id="title4">empty</title>
  <description
     id="description6">Created with Sketch.</description>
  <defs
     id="defs8">
    <linearGradient
       id="linearGradient3761">
      <stop
         style="stop-color:#517fa4;stop-opacity:1;"
         offset="0"
         id="stop3763" />
      <stop
         style="stop-color:#69a2d3;stop-opacity:1;"
         offset="1"
         id="stop3765" />
    </linearGradient>
    <linearGradient
       inkscape:collect="always"
       xlink:href="#linearGradient3761"
       id="linearGradient3953"
       gradientUnits="userSpaceOnUse"
       x1="130.17404"
       y1="68.214745"
       x2="132.16663"
       y2="191.92996" />
    <clipPath
       clipPathUnits="userSpaceOnUse"
       id="clipPath3959">
      <path
         sodipodi:type="arc"
         style="fill:url(#linearGradient3963);fill-opacity:1;fill-rule:evenodd;stroke:none"
         id="path3961"
         sodipodi:cx="129.35593"
         sodipodi:cy="128.27118"
         sodipodi:rx="63.18644"
         sodipodi:ry="63.18644"
         d="m 192.54237,128.27118 a 63.18644,63.18644 0 1 1 -126.372883,0 63.18644,63.18644 0 1 1 126.372883,0 z"
         transform="translate(-65.355927,-64.271179)" />
    </clipPath>
    <linearGradient
       inkscape:collect="always"
       xlink:href="#linearGradient3761"
       id="linearGradient3963"
       gradientUnits="userSpaceOnUse"
       x1="129.66949"
       y1="65.8983"
       x2="129.66949"
       y2="188.59828" />
  </defs>
  <path
     transform="translate(-65.355927,-64.271179)"
     d="m 192.54237,128.27118 a 63.18644,63.18644 0 1 1 -126.372883,0 63.18644,63.18644 0 1 1 126.372883,0 z"
     sodipodi:ry="63.18644"
     sodipodi:rx="63.18644"
     sodipodi:cy="128.27118"
     sodipodi:cx="129.35593"
     id="path3951"
     style="fill:url(#linearGradient3953);fill-opacity:1;fill-rule:evenodd;stroke:none"
     sodipodi:type="arc" />
  <path
     style="opacity:0.76954733;fill:#d2dee9;stroke:#d2dee9;stroke-width:2.04494094999999998;stroke-linecap:butt;stroke-linejoin:miter;stroke-miterlimit:4;stroke-opacity:1;stroke-dasharray:none;fill-opacity:1"
     d="m 63.584621,17.642288 0,0.127809 C 59.41718,18.340886 29.255283,22.846886 17.509548,35.759186 9.3411387,104.44726 56.935799,128.81668 63.584621,132.22288 l 0,0.44733 c 0,-0.0177 0.241306,-0.13137 0.415379,-0.22366 0.174073,0.0923 0.415379,0.20593 0.415379,0.22366 l 0,-0.44733 c 6.648823,-3.4062 54.243491,-27.77562 46.075071,-96.463694 -11.745724,-12.9123 -41.907629,-17.4183 -46.075071,-17.989089 l 0,-0.127809 c 0,0 -0.335607,0.05352 -0.415379,0.0639 -0.07977,-0.01039 -0.415379,-0.0639 -0.415379,-0.0639 z m 0,2.300559 c 0.138104,-0.0013 0.276949,0 0.415379,0 0.13843,0 0.277275,-0.0013 0.415379,0 22.319268,0.222688 40.355631,18.399271 40.355631,40.771008 0,22.510167 -18.260843,40.771005 -40.77101,40.771005 -22.510167,0 -40.771008,-18.260838 -40.771008,-40.771005 0,-22.371737 18.036361,-40.54832 40.355629,-40.771008 z m -17.222236,9.266138 c -9.928035,0 -17.989089,8.061054 -17.989089,17.989089 0,9.928036 8.061054,17.957137 17.989089,17.957137 9.928036,0 17.957137,-8.029101 17.957137,-17.957137 0,-9.928035 -8.029101,-17.989089 -17.957137,-17.989089 z m 17.957137,17.989089 c 0,9.928036 8.061054,17.957137 17.989089,17.957137 9.928036,0 17.957139,-8.029101 17.957139,-17.957137 0,-9.928035 -8.029103,-17.989089 -17.957139,-17.989089 -9.928035,0 -17.989089,8.061054 -17.989089,17.989089 z M 51.538642,34.033767 c 5.448311,0 9.87323,4.424919 9.87323,9.87323 0,5.448312 -4.424919,9.873231 -9.87323,9.873231 -5.448312,0 -9.87323,-4.424919 -9.87323,-9.873231 0,-5.448311 4.424918,-9.87323 9.87323,-9.87323 z m 25.433952,0.894662 c 5.448311,0 9.87323,4.424919 9.87323,9.87323 0,5.448311 -4.424919,9.841278 -9.87323,9.841278 -5.448312,0 -9.873231,-4.392967 -9.873231,-9.841278 0,-5.448311 4.424919,-9.87323 9.873231,-9.87323 z M 64,70.874655 c -1.214497,0 -2.204702,0.958253 -2.204702,2.17275 l 0,13.164307 c 0,1.214496 0.990205,2.204701 2.204702,2.204701 1.214497,0 2.204702,-0.990205 2.204702,-2.204701 l 0,-13.164307 c 0,-1.214497 -0.990205,-2.17275 -2.204702,-2.17275 z"
     id="path3120"
     inkscape:connector-curvature="0"
     clip-path="url(#clipPath3959)" />
  <path
     transform="matrix(1.0098039,0,0,1.0098039,0.44983083,-3.8067462)"
     d="m 60.033503,47.597988 a 9.2194309,9.2194309 0 1 1 -18.438862,0 9.2194309,9.2194309 0 1 1 18.438862,0 z"
     sodipodi:ry="9.2194309"
     sodipodi:rx="9.2194309"
     sodipodi:cy="47.597988"
     sodipodi:cx="50.814072"
     id="path3967"
     style="fill:#ffffff;fill-opacity:1;stroke:none"
     sodipodi:type="arc" />
  <path
     sodipodi:type="arc"
     style="fill:#ffffff;fill-opacity:1;stroke:none"
     id="path3965"
     sodipodi:cx="50.814072"
     sodipodi:cy="47.597988"
     sodipodi:rx="9.2194309"
     sodipodi:ry="9.2194309"
     d="m 60.033503,47.597988 a 9.2194309,9.2194309 0 1 1 -18.438862,0 9.2194309,9.2194309 0 1 1 18.438862,0 z"
     transform="matrix(1.0098039,0,0,1.0098039,25.997701,-3.8067462)" />
</svg>
